<?xml version="1.0" encoding="UTF-8" standalone="no"?>
<!DOCTYPE svg PUBLIC "-//W3C//DTD SVG 1.1//EN" "http://www.w3.org/Graphics/SVG/1.1/DTD/svg11.dtd">
<svg width="100%" height="100%" viewBox="0 0 300 300" version="1.1" xmlns="http://www.w3.org/2000/svg" xmlns:xlink="http://www.w3.org/1999/xlink" xml:space="preserve" xmlns:serif="http://www.serif.com/" style="fill-rule:evenodd;clip-rule:evenodd;stroke-linejoin:round;stroke-miterlimit:2;">
    <g transform="matrix(-0.106566,-0.869335,2.020523,-0.247682,-953.306186,1013.196983)">
        <path d="M828.861,611.037C826.264,614.675 824.999,614.3 819.52,614.781C819.3,614.618 815.564,611.854 816.105,614.452C816.15,614.663 816.238,614.602 817.895,616.479C818.03,619.264 818.747,619.123 821.546,619.306C823.436,621.84 824.954,622.427 822.395,624.37C821.156,625.31 812.794,624.89 810.164,618.598C808.457,614.517 807.051,618.365 802.498,618.437C797.256,618.52 801.039,627.914 803.526,628.072C805.839,628.219 805.799,627.762 832.504,628.275C833.695,628.298 833.618,629.045 842.489,629.043C853.07,629.039 853.085,628.663 863.405,630.8C870.224,632.212 875.047,630.013 885.523,632.097C885.648,632.121 905.39,632.116 905.467,632.105C913.121,630.95 912.717,628.12 933.496,628.062C946.907,628.025 957.966,628.34 960.791,631.208C962.055,632.492 984.237,632.097 976.367,636.241C973.24,637.888 972.894,635.454 969.52,636.586C968.681,636.867 968.692,636.033 958.495,635.725C953.753,635.582 953.219,634.846 939.497,634.826C927.965,634.048 918.426,635.739 910.514,635.784C871.748,636.006 871.835,635.562 867.502,634.879C862.549,634.098 862.246,636.401 853.609,633.194C852.398,632.744 852.304,633.611 837.501,632.007C836.615,631.911 836.826,633.312 826.493,633.677C822.939,633.802 822.996,633.752 819.539,634.816C816.124,633.01 815.793,632.688 812.505,634.814C804.024,634.722 803.846,635.603 800.406,633.839C796.416,631.793 791.299,634.364 791.114,630.52C791.023,628.651 790.777,628.795 789.613,627.411C788.822,626.471 790.059,622.835 785.423,620.598C779.832,617.899 790.91,617.284 791.461,617.253C793.764,617.125 803.24,610.26 805.88,613.166C809.22,616.845 817.621,605.76 828.861,611.037Z" style="fill:rgb(229,172,0);fill-opacity:0.73;"/>
    </g>
    <g transform="matrix(-1.11894,-1.072219,0.875121,-0.913253,295.886988,378.538791)">
        <path d="M168.852,23.077C170.469,22.58 173.207,20.54 175.367,21.699C179.793,24.073 178.748,27.03 178.571,27.532C177.28,31.182 180.108,31.102 179.435,34.483C178.685,38.251 178.925,38.648 175.55,40.603L174.522,40.578C173.868,40.597 173.977,40.338 173.323,40.357C171.874,40.398 173.354,41.098 173.413,42.522C172.772,43.567 172.131,44.611 171.49,45.656C170.921,46.034 170.353,46.412 169.784,46.79C169.029,46.222 168.273,45.654 167.518,45.086C166.561,46.792 165.444,46.771 166.555,48.455C168.434,51.305 170.998,51.457 171.458,51.484C171.552,50.634 171.646,49.784 171.74,48.934C172.004,49.059 172.15,48.248 172.413,48.374C172.908,48.61 173.017,49.291 173.369,49.71C173.369,49.71 174.986,50.646 175.127,50.728C176.816,52.576 176.756,52.555 177.908,54.71C177.31,54.787 174.013,55.209 171.464,58.594C169.4,57.028 169.417,57.072 169.246,56.931C168.759,55.94 168.87,54.724 168.383,53.733C167.665,52.269 167.306,53.522 165.236,54.912C164.006,53.256 164.816,52.351 162.71,52.004C161.529,51.81 156.43,42.613 156.411,42.541C155.83,40.376 155.438,40.611 154.456,38.528C152.923,35.277 149.884,37.689 149.129,33.563C148.639,30.882 148.628,30.956 147.422,28.549C145.42,24.556 143.586,23.685 147.16,21.105C150.673,18.57 147.631,14.088 150.286,12.215C156.087,8.123 159.746,19.626 159.497,20.499C158.208,25.004 159.241,24.973 160.596,29.418C160.898,29.72 163.685,37.245 164.51,33.507C165.097,30.849 164.638,30.866 163.271,28.522C163.139,27.976 162.132,23.802 164.594,21.627C166.943,19.553 168.681,22.76 168.852,23.077ZM169.497,41.262C166.795,40.555 163.979,37.168 165.565,36.717C169.003,35.74 171.614,38.276 169.497,41.262ZM169.596,26.564C171.526,26.276 172.083,25.646 172.639,27.482C173.121,29.073 172.232,28.772 170.503,28.69C169.002,28.618 169.521,28.023 169.596,26.564ZM162.507,43.564C164.017,43.859 163.943,43.866 165.252,44.747C164.213,46.86 163.524,46.151 161.694,44.64C161.965,44.281 162.236,43.923 162.507,43.564Z" style="fill:rgb(229,172,0);fill-opacity:0.81;"/>
    </g>
    <g transform="matrix(1.52043,-1.067998,1.067998,1.52043,-1760.994955,437.720042)">
        <path d="M990.526,410.544C994.908,409.764 995.169,411.032 995.675,415.481C996.28,420.792 989.167,421.914 988.986,422.662C987.581,428.454 988.278,428.963 983.768,432.89C980.605,435.643 984.328,438.47 976.746,443.846C973.755,445.967 975.521,448.559 969.637,454.626C968.049,456.264 968.851,457.033 966.713,457.984C965.465,458.54 960.265,461.483 959.71,461.797C958.704,462.366 959.526,463.47 957.317,465.25C955.06,467.068 956.009,467.86 953.594,469.584C953.3,469.925 953.006,470.267 952.712,470.608C952.555,470.839 952.044,470.521 951.888,470.752C951.888,470.752 951.635,472.474 951.613,472.624C938.183,483.223 937.685,483.324 936.52,482.475C933.751,480.457 943.627,475.194 947.772,468.647C948.973,466.75 948.434,466.405 950.241,465.147C951.139,464.522 950.995,464.456 951.32,463.423C951.978,461.33 953.219,461.545 952.49,459.503C951.642,457.126 952.988,457.459 954.465,455.474C954.595,455.442 956.092,455.081 956.092,455.081C956.328,454.865 955.917,454.339 956.153,454.124C956.523,453.817 956.893,453.51 957.263,453.204C959.476,450.745 961.792,444.3 968.296,446.193C968.687,445.787 968.307,445.557 972.842,440.821C975.353,438.199 973.363,436.445 975.699,435.994C978.977,435.362 977.457,425.637 980.47,424.451C984.37,422.918 983.9,422.305 985.314,418.426C986.141,416.156 988.918,412.812 989.289,412.366C989.294,412.359 989.832,412.907 990.526,410.544Z" style="fill:rgb(229,172,0);fill-opacity:0.79;"/>
    </g>
    <g transform="matrix(-2.927869,-2.372475,1.053356,-1.326973,992.429091,987.062714)">
        <path d="M304.289,112.137C306.233,110.268 305.137,108.985 304.801,105.509C304.584,103.271 306.607,103.347 305.458,100.517C304.817,98.937 305.26,98.914 306.156,93.457C306.503,91.348 305.409,89.671 305.45,88.493C305.632,83.225 303.087,82.363 301.838,81.176C300.541,79.942 301.881,74.125 304.978,79.276C307.955,84.227 311.518,84.941 311.006,90.494C310.397,97.108 312.357,96.879 312.804,103.468C312.935,105.402 315.182,104.984 315.75,108.445C316.592,113.581 320.915,115.945 321.282,118.552C321.654,121.193 324.59,135.547 324.477,136.496C324.106,139.621 325.703,139.408 325.576,142.508C325.347,148.06 329.096,152.657 329.684,153.377C332.096,156.335 326.017,152.726 325.149,151.873C315.078,141.966 323.136,129.556 314.333,113.674C311.778,110.715 313.19,110.013 311.179,106.697C309.696,104.252 307.983,107.022 309.79,112.156C307.838,113.183 307.877,113.886 306.457,113.09C305.406,112.502 305.425,112.636 304.289,112.137Z" style="fill:rgb(229,172,0);fill-opacity:0.61;"/>
    </g>
    <g transform="matrix(3.016481,2.258739,-1.001824,1.366296,-620.617475,-784.802504)">
        <path d="M304.289,112.137C306.233,110.268 305.137,108.985 304.801,105.509C304.584,103.271 306.607,103.347 305.458,100.517C304.817,98.937 305.26,98.914 306.156,93.457C306.503,91.348 305.409,89.671 305.45,88.493C305.632,83.225 303.087,82.363 301.838,81.176C300.541,79.942 301.881,74.125 304.978,79.276C307.955,84.227 311.518,84.941 311.006,90.494C310.397,97.108 312.357,96.879 312.804,103.468C312.935,105.402 315.182,104.984 315.75,108.445C316.592,113.581 320.915,115.945 321.282,118.552C321.654,121.193 324.59,135.547 324.477,136.496C324.106,139.621 325.703,139.408 325.576,142.508C325.347,148.06 329.096,152.657 329.684,153.377C332.096,156.335 326.017,152.726 325.149,151.873C315.078,141.966 323.136,129.556 314.333,113.674C311.778,110.715 313.19,110.013 311.179,106.697C309.696,104.252 307.983,107.022 309.79,112.156C307.838,113.183 307.877,113.886 306.457,113.09C305.406,112.502 305.425,112.636 304.289,112.137Z" style="fill:rgb(229,172,0);fill-opacity:0.61;"/>
    </g>
    <g transform="matrix(-1.170991,0.019411,-0.016814,-1.014343,502.98559,295.285697)">
        <path d="M304.289,112.137C305.425,112.636 305.406,112.502 306.457,113.09C307.877,113.886 307.838,113.183 309.79,112.156C309.976,112.538 310.425,113.457 312.818,116.524C310.038,125.732 314.903,130.108 310.571,130.747C306.39,131.363 307.728,133.29 310.259,136.652C313.352,140.76 309.722,142.631 313.893,146.063C317.08,148.685 315.513,151.833 315.929,153.474C317.906,161.266 320.703,159.371 321.741,161.371C324.8,167.266 307.988,156.239 309.431,150.472C310.779,145.083 306.413,143.555 306.279,142.557C306.155,141.622 305.136,134.003 302.705,131.324C298.986,127.226 297.045,128.911 295.089,123.695C294.029,120.867 290.486,121.972 291.561,115.547C291.853,115.614 296.583,116.696 295.198,114.681C294.742,114.019 292.072,113.222 291.785,113.136C291.084,112.813 291.169,112.806 290.476,112.533C288.569,111.784 289.542,108.779 291.356,108.238C295.407,107.03 288.841,104.747 288.45,103.526C287.55,100.708 285.879,99.825 288.616,98.794C291.061,97.872 290.856,99.126 294.678,102.292C298.378,105.355 294.777,107.517 298.363,110.626C298.827,111.029 299.911,111.968 301.862,117.46C296.5,119.011 296.654,123.076 301.67,123.359C310.079,124.999 302.686,113.765 303.501,112.501C303.657,112.257 304.132,112.38 304.289,112.137Z" style="fill:rgb(229,172,0);fill-opacity:0.65;"/>
    </g>
    <g transform="matrix(-0.463754,-2.06804,1.936588,-0.434276,-394.433432,1313.62316)">
        <path d="M496.855,419.113C497.165,419.237 500.519,420.576 501.021,419.292C502.39,415.792 502.334,415.759 502.568,415.589C506.357,412.824 507.575,424.115 508.758,425.012C508.249,426.776 507.974,426.653 507.769,428.44C507.347,432.123 509.401,429.652 509.415,429.423C509.43,429.179 509.513,427.816 510.317,426.5L510.5,425.181C516.125,426.436 515.448,431.311 513.816,432.769C512.669,433.793 512.588,435.649 512.133,436.258C510.392,438.591 513.149,441.641 510.546,442.588C506.175,444.179 505.001,436.478 504.327,435.638C498.6,428.499 501.222,441.785 495.737,445.835C490.641,449.598 490.165,441.613 489.487,439.505C487.702,433.95 487.026,433.594 483.518,434.228C481.349,434.62 482.487,428.57 481.681,426.445C479.579,420.906 492.142,428.65 492.466,429.528C493.056,431.124 493.513,430.402 494.496,430.494C495.115,430.374 495.734,430.254 496.353,430.134C496.531,429.962 496.21,429.564 496.388,429.392C497.01,428.791 497.261,429.345 497.867,428.672C498.227,428.271 497.481,428.177 497.838,427.78C498.687,423.89 499.058,423.855 498.793,423.642C498.428,423.35 497.766,423.882 497.39,423.605C496.959,423.286 497.002,422.602 496.747,422.131C495.368,419.59 496.653,419.663 496.855,419.113Z" style="fill:rgb(229,172,0);fill-opacity:0.68;"/>
    </g>
    <g transform="matrix(-2.54414,0.63424,-0.63424,-2.54414,2990.073554,614.039486)">
        <path d="M976.132,470.531C974.42,466.663 976.125,465.668 974.28,464.923C963.701,460.656 977.489,455.867 980.141,452.214C982.62,448.8 986.468,446.788 986.586,446.572C987.067,445.696 991.095,438.348 996.592,439.099C1003.877,440.094 990.697,445.001 989.307,448.403C987.39,453.093 986.755,452.598 983.526,456.519C983.162,456.961 971.733,463.876 980.491,461.43C983.67,460.543 983.618,461.998 985.328,463.662C987.232,465.514 987.446,466.214 987.53,466.488C988.965,471.193 981.442,472.781 979.665,473.587C977.199,475.061 977.432,475.282 977.21,475.38C975.491,476.139 975.11,476.422 974.143,474.733C973.932,474.364 973.595,474.037 973.205,473.867C971.851,473.275 973.031,474.56 972.685,475.942C971.035,477.718 971.992,477.965 972.511,479.276C971.997,479.504 972.002,479.292 971.497,479.516C970.197,480.093 970.218,479.554 968.745,479.597C969.446,475.793 969.32,475.809 971.368,472.418C972.848,469.967 975.153,473.264 976.132,470.531Z" style="fill:rgb(229,172,0);fill-opacity:0.7;"/>
    </g>
    <g transform="matrix(-1.724372,0.028584,-0.028584,-1.724372,674.616844,410.480423)">
        <path d="M285.514,143.986L284.264,145.5C284.186,146.021 283.417,146.262 283.34,146.783C283.191,147.786 285.256,149.28 285.477,149.44L286.582,149.749C288.237,150.221 288.226,150.223 288.37,150.259C289.153,150.455 289.105,150.346 289.846,150.531C289.435,149.332 289.531,149.387 288.81,148.284C288.548,146.684 288.498,146.693 288.527,146.556C288.58,146.309 289.101,146.547 289.257,146.348C289.927,145.492 289.411,145.474 288.314,143.271C291.972,140.495 292.504,141.381 294.634,143.296C294.623,143.757 293.961,144.039 293.95,144.5C293.935,145.165 294.505,146.294 294.579,146.439C300.455,158.072 295.599,143.697 295.504,143.467C300.822,142.898 307.515,144.622 303.929,150.671C303.691,150.91 303.156,150.478 302.919,150.717C302.7,150.937 303.106,151.372 302.96,151.646C301.99,153.461 301.761,153.386 301.827,153.551C302.029,154.049 302.651,154.298 302.853,154.796C302.622,155.151 302.081,155.22 301.851,155.575C301.645,155.894 306.528,161.492 304.48,163.48C301.054,166.808 300.87,156.185 290.5,156.484C285.695,156.622 287.076,152.596 283.724,152.974C283.607,152.987 282.263,157.813 279.916,154.135C278.713,152.25 278.689,152.305 278.155,150.111C282.246,148.211 280.124,146.475 281.794,144.802C282.433,144.162 285.209,144.003 285.514,143.986Z" style="fill:rgb(229,172,0);fill-opacity:0.7;"/>
    </g>
    <g transform="matrix(-1.724372,0.028584,-0.028584,-1.724372,596.443125,318.943675)">
        <path d="M285.514,143.986L284.264,145.5C284.186,146.021 283.417,146.262 283.34,146.783C283.191,147.786 285.256,149.28 285.477,149.44L286.582,149.749C288.237,150.221 288.226,150.223 288.37,150.259C289.153,150.455 289.105,150.346 289.846,150.531C289.435,149.332 289.531,149.387 288.81,148.284C288.548,146.684 288.498,146.693 288.527,146.556C288.58,146.309 289.101,146.547 289.257,146.348C289.927,145.492 289.411,145.474 288.314,143.271C291.972,140.495 292.504,141.381 294.634,143.296C294.623,143.757 293.961,144.039 293.95,144.5C293.935,145.165 294.505,146.294 294.579,146.439C300.455,158.072 295.599,143.697 295.504,143.467C300.822,142.898 307.515,144.622 303.929,150.671C303.691,150.91 303.156,150.478 302.919,150.717C302.7,150.937 303.106,151.372 302.96,151.646C301.99,153.461 301.761,153.386 301.827,153.551C302.029,154.049 302.651,154.298 302.853,154.796C302.622,155.151 302.081,155.22 301.851,155.575C301.645,155.894 306.528,161.492 304.48,163.48C301.054,166.808 300.87,156.185 290.5,156.484C285.695,156.622 287.076,152.596 283.724,152.974C283.607,152.987 282.263,157.813 279.916,154.135C278.713,152.25 278.689,152.305 278.155,150.111C282.246,148.211 280.124,146.475 281.794,144.802C282.433,144.162 285.209,144.003 285.514,143.986Z" style="fill:rgb(229,172,0);fill-opacity:0.7;"/>
    </g>
    <g transform="matrix(-1.724372,0.028584,-0.028584,-1.724372,671.276087,290.881314)">
        <path d="M285.514,143.986L284.264,145.5C284.186,146.021 283.417,146.262 283.34,146.783C283.191,147.786 285.256,149.28 285.477,149.44L286.582,149.749C288.237,150.221 288.226,150.223 288.37,150.259C289.153,150.455 289.105,150.346 289.846,150.531C289.435,149.332 289.531,149.387 288.81,148.284C288.548,146.684 288.498,146.693 288.527,146.556C288.58,146.309 289.101,146.547 289.257,146.348C289.927,145.492 289.411,145.474 288.314,143.271C291.972,140.495 292.504,141.381 294.634,143.296C294.623,143.757 293.961,144.039 293.95,144.5C293.935,145.165 294.505,146.294 294.579,146.439C300.455,158.072 295.599,143.697 295.504,143.467C300.822,142.898 307.515,144.622 303.929,150.671C303.691,150.91 303.156,150.478 302.919,150.717C302.7,150.937 303.106,151.372 302.96,151.646C301.99,153.461 301.761,153.386 301.827,153.551C302.029,154.049 302.651,154.298 302.853,154.796C302.622,155.151 302.081,155.22 301.851,155.575C301.645,155.894 306.528,161.492 304.48,163.48C301.054,166.808 300.87,156.185 290.5,156.484C285.695,156.622 287.076,152.596 283.724,152.974C283.607,152.987 282.263,157.813 279.916,154.135C278.713,152.25 278.689,152.305 278.155,150.111C282.246,148.211 280.124,146.475 281.794,144.802C282.433,144.162 285.209,144.003 285.514,143.986Z" style="fill:rgb(229,172,0);fill-opacity:0.7;"/>
    </g>
    <g transform="matrix(-1.724372,0.028584,-0.028584,-1.724372,648.558937,519.389109)">
        <path d="M285.514,143.986L284.264,145.5C284.186,146.021 283.417,146.262 283.34,146.783C283.191,147.786 285.256,149.28 285.477,149.44L286.582,149.749C288.237,150.221 288.226,150.223 288.37,150.259C289.153,150.455 289.105,150.346 289.846,150.531C289.435,149.332 289.531,149.387 288.81,148.284C288.548,146.684 288.498,146.693 288.527,146.556C288.58,146.309 289.101,146.547 289.257,146.348C289.927,145.492 289.411,145.474 288.314,143.271C291.972,140.495 292.504,141.381 294.634,143.296C294.623,143.757 293.961,144.039 293.95,144.5C293.935,145.165 294.505,146.294 294.579,146.439C300.455,158.072 295.599,143.697 295.504,143.467C300.822,142.898 307.515,144.622 303.929,150.671C303.691,150.91 303.156,150.478 302.919,150.717C302.7,150.937 303.106,151.372 302.96,151.646C301.99,153.461 301.761,153.386 301.827,153.551C302.029,154.049 302.651,154.298 302.853,154.796C302.622,155.151 302.081,155.22 301.851,155.575C301.645,155.894 306.528,161.492 304.48,163.48C301.054,166.808 300.87,156.185 290.5,156.484C285.695,156.622 287.076,152.596 283.724,152.974C283.607,152.987 282.263,157.813 279.916,154.135C278.713,152.25 278.689,152.305 278.155,150.111C282.246,148.211 280.124,146.475 281.794,144.802C282.433,144.162 285.209,144.003 285.514,143.986Z" style="fill:rgb(229,172,0);fill-opacity:0.7;"/>
    </g>
    <g transform="matrix(-2.266442,-1.318389,1.318389,-2.266442,1696.709783,2403.093611)">
        <path d="M980.629,475.253C988.553,478.932 982.491,482.709 980.422,483.008C979.853,483.09 974.214,484.755 973.676,484.914C972.676,485.209 972.719,489.142 970.586,489.712C965.797,490.993 967.071,494.129 963.471,493.744C957.016,493.053 957.01,499.569 952.809,496.139C947.511,491.814 959.373,487.271 959.454,487.261C961.696,486.966 961.242,486.026 963.401,485.276C965.025,484.712 964.606,484.192 965.567,483.579C967.828,482.138 967.801,482.089 968.745,479.597C970.218,479.554 970.197,480.093 971.497,479.516C972.002,479.292 971.997,479.504 972.511,479.276C974.039,478.41 974.208,478.426 974.211,476.615C977.59,477.83 977.634,477.082 980.629,475.253Z" style="fill:rgb(229,172,0);fill-opacity:0.74;"/>
    </g>
    <g transform="matrix(-2.621645,0.043458,-0.043458,-2.621645,1017.040745,552.045077)">
        <path d="M345.438,205.615C344.471,204.763 344.339,204.825 344.181,203.516C343.423,197.232 335.291,195.922 338.726,193.846C340.801,192.592 340.809,193.744 342.794,195.063C346.826,197.744 347.521,197.077 349.804,201.423C351.103,203.896 352.037,203.042 353.526,205.461C354.293,206.707 355.419,206.369 355.48,206.398C355.586,206.38 355.783,207.113 358.752,205.154C358.898,205.436 359.526,205.124 359.672,205.406C359.982,206.008 359.753,206.765 359.92,207.421C360.266,208.785 361.556,208.364 362.852,216.453L361.5,217.599C359.575,216.646 359.681,216.511 358.555,216.393C355.603,213.566 356.189,212.96 355.847,213.011C355.072,213.126 355.091,214.678 354.316,214.793L352.344,213.983C351.293,213.713 349.969,214.68 347.277,210.658C348.1,210.054 348.923,209.451 349.745,208.848C353.585,209.946 353.508,208.772 353.451,208.48C353.236,207.383 352.878,207.356 352.773,207.349C351.33,207.242 351.653,208.347 350.259,208.245C349.575,207.107 349.6,207.195 348.559,206.307C347.519,206.077 346.478,205.846 345.438,205.615ZM355.859,210.658C356.002,210.526 357.289,209.344 358.172,209.919C358.73,210.283 357.915,215.383 355.859,210.658Z" style="fill:rgb(229,172,0);fill-opacity:0.62;"/>
    </g>
    <g transform="matrix(-1.415956,0.984554,-0.984554,-1.415956,1995.574399,-135.891352)">
        <path d="M935.509,451.661C939.062,450.999 939.44,451.609 941.875,448.874C947.157,442.941 948.803,443.14 949.561,443.231C955.041,443.894 947.358,451.724 945.676,452.746C942.66,454.577 943.303,458.449 938.472,457.738C935.598,457.315 935.146,457.683 934.726,460.535C933.856,466.433 922.982,464.859 927.13,461.135C929.303,459.185 928.325,458.564 930.058,456.245C930.164,456.148 931.873,454.135 935.509,451.661Z" style="fill:rgb(229,172,0);fill-opacity:0.85;"/>
    </g>
    <g transform="matrix(-1.415956,0.984554,-0.984554,-1.415956,1914.728074,-103.820082)">
        <path d="M935.509,451.661C939.062,450.999 939.44,451.609 941.875,448.874C947.157,442.941 948.803,443.14 949.561,443.231C955.041,443.894 947.358,451.724 945.676,452.746C942.66,454.577 943.303,458.449 938.472,457.738C935.598,457.315 935.146,457.683 934.726,460.535C933.856,466.433 922.982,464.859 927.13,461.135C929.303,459.185 928.325,458.564 930.058,456.245C930.164,456.148 931.873,454.135 935.509,451.661Z" style="fill:rgb(229,172,0);fill-opacity:0.85;"/>
    </g>
    <g transform="matrix(1.212287,1.226637,-1.226637,1.212287,-422.253298,-1560.615883)">
        <path d="M935.509,451.661C939.062,450.999 939.44,451.609 941.875,448.874C947.157,442.941 948.803,443.14 949.561,443.231C955.041,443.894 947.358,451.724 945.676,452.746C942.66,454.577 943.303,458.449 938.472,457.738C935.598,457.315 935.146,457.683 934.726,460.535C933.856,466.433 922.982,464.859 927.13,461.135C929.303,459.185 928.325,458.564 930.058,456.245C930.164,456.148 931.873,454.135 935.509,451.661Z" style="fill:rgb(229,172,0);fill-opacity:0.85;"/>
    </g>
    <g transform="matrix(1.212287,1.226637,-1.226637,1.212287,-408.890269,-1543.243945)">
        <path d="M935.509,451.661C939.062,450.999 939.44,451.609 941.875,448.874C947.157,442.941 948.803,443.14 949.561,443.231C955.041,443.894 947.358,451.724 945.676,452.746C942.66,454.577 943.303,458.449 938.472,457.738C935.598,457.315 935.146,457.683 934.726,460.535C933.856,466.433 922.982,464.859 927.13,461.135C929.303,459.185 928.325,458.564 930.058,456.245C930.164,456.148 931.873,454.135 935.509,451.661Z" style="fill:rgb(229,172,0);fill-opacity:0.85;"/>
    </g>
    <g transform="matrix(-1.057718,1.362171,-1.362171,-1.057718,1833.534965,-715.675527)">
        <path d="M935.509,451.661C939.062,450.999 939.44,451.609 941.875,448.874C947.157,442.941 948.803,443.14 949.561,443.231C955.041,443.894 947.358,451.724 945.676,452.746C942.66,454.577 943.303,458.449 938.472,457.738C935.598,457.315 935.146,457.683 934.726,460.535C933.856,466.433 922.982,464.859 927.13,461.135C929.303,459.185 928.325,458.564 930.058,456.245C930.164,456.148 931.873,454.135 935.509,451.661Z" style="fill:rgb(229,172,0);fill-opacity:0.85;"/>
    </g>
    <g transform="matrix(0.979853,0.991452,-0.991452,0.979853,-330.700284,-1175.420738)">
        <path d="M935.509,451.661C939.062,450.999 939.44,451.609 941.875,448.874C947.157,442.941 948.803,443.14 949.561,443.231C955.041,443.894 947.358,451.724 945.676,452.746C942.66,454.577 943.303,458.449 938.472,457.738C935.598,457.315 935.146,457.683 934.726,460.535C933.856,466.433 922.982,464.859 927.13,461.135C929.303,459.185 928.325,458.564 930.058,456.245C930.164,456.148 931.873,454.135 935.509,451.661Z" style="fill:rgb(229,172,0);fill-opacity:0.85;"/>
    </g>
    <g transform="matrix(0.979853,0.991452,-0.991452,0.979853,-325.355073,-1223.527642)">
        <path d="M935.509,451.661C939.062,450.999 939.44,451.609 941.875,448.874C947.157,442.941 948.803,443.14 949.561,443.231C955.041,443.894 947.358,451.724 945.676,452.746C942.66,454.577 943.303,458.449 938.472,457.738C935.598,457.315 935.146,457.683 934.726,460.535C933.856,466.433 922.982,464.859 927.13,461.135C929.303,459.185 928.325,458.564 930.058,456.245C930.164,456.148 931.873,454.135 935.509,451.661Z" style="fill:rgb(229,172,0);fill-opacity:0.85;"/>
    </g>
    <g transform="matrix(0.979853,0.991452,-0.991452,0.979853,-330.032133,-1084.552141)">
        <path d="M935.509,451.661C939.062,450.999 939.44,451.609 941.875,448.874C947.157,442.941 948.803,443.14 949.561,443.231C955.041,443.894 947.358,451.724 945.676,452.746C942.66,454.577 943.303,458.449 938.472,457.738C935.598,457.315 935.146,457.683 934.726,460.535C933.856,466.433 922.982,464.859 927.13,461.135C929.303,459.185 928.325,458.564 930.058,456.245C930.164,456.148 931.873,454.135 935.509,451.661Z" style="fill:rgb(229,172,0);fill-opacity:0.85;"/>
    </g>
    <g transform="matrix(-0.897767,1.066351,-1.033474,-0.870087,1514.322613,-490.188695)">
        <path d="M935.509,451.661C939.062,450.999 939.44,451.609 941.875,448.874C947.157,442.941 948.803,443.14 949.561,443.231C955.041,443.894 947.358,451.724 945.676,452.746C942.66,454.577 943.303,458.449 938.472,457.738C935.598,457.315 935.146,457.683 934.726,460.535C933.856,466.433 922.982,464.859 927.13,461.135C929.303,459.185 928.325,458.564 930.058,456.245C930.164,456.148 931.873,454.135 935.509,451.661Z" style="fill:rgb(229,172,0);fill-opacity:0.85;"/>
    </g>
    <g transform="matrix(-1.070605,-0.89269,0.865167,-1.037596,740.900523,1352.0067)">
        <path d="M935.509,451.661C939.062,450.999 939.44,451.609 941.875,448.874C947.157,442.941 948.803,443.14 949.561,443.231C955.041,443.894 947.358,451.724 945.676,452.746C942.66,454.577 943.303,458.449 938.472,457.738C935.598,457.315 935.146,457.683 934.726,460.535C933.856,466.433 922.982,464.859 927.13,461.135C929.303,459.185 928.325,458.564 930.058,456.245C930.164,456.148 931.873,454.135 935.509,451.661Z" style="fill:rgb(229,172,0);fill-opacity:0.85;"/>
    </g>
    <g transform="matrix(-0.897767,1.066351,-1.033474,-0.870087,1506.972947,-459.453729)">
        <path d="M935.509,451.661C939.062,450.999 939.44,451.609 941.875,448.874C947.157,442.941 948.803,443.14 949.561,443.231C955.041,443.894 947.358,451.724 945.676,452.746C942.66,454.577 943.303,458.449 938.472,457.738C935.598,457.315 935.146,457.683 934.726,460.535C933.856,466.433 922.982,464.859 927.13,461.135C929.303,459.185 928.325,458.564 930.058,456.245C930.164,456.148 931.873,454.135 935.509,451.661Z" style="fill:rgb(229,172,0);fill-opacity:0.85;"/>
    </g>
    <g transform="matrix(-0.897767,1.066351,-1.033474,-0.870087,1545.05758,-569.698717)">
        <path d="M935.509,451.661C939.062,450.999 939.44,451.609 941.875,448.874C947.157,442.941 948.803,443.14 949.561,443.231C955.041,443.894 947.358,451.724 945.676,452.746C942.66,454.577 943.303,458.449 938.472,457.738C935.598,457.315 935.146,457.683 934.726,460.535C933.856,466.433 922.982,464.859 927.13,461.135C929.303,459.185 928.325,458.564 930.058,456.245C930.164,456.148 931.873,454.135 935.509,451.661Z" style="fill:rgb(229,172,0);fill-opacity:0.85;"/>
    </g>
    <g transform="matrix(-1.20744,-0.696547,0.675071,-1.170213,1000.942261,1203.55763)">
        <path d="M935.509,451.661C939.062,450.999 939.44,451.609 941.875,448.874C947.157,442.941 948.803,443.14 949.561,443.231C955.041,443.894 947.358,451.724 945.676,452.746C942.66,454.577 943.303,458.449 938.472,457.738C935.598,457.315 935.146,457.683 934.726,460.535C933.856,466.433 922.982,464.859 927.13,461.135C929.303,459.185 928.325,458.564 930.058,456.245C930.164,456.148 931.873,454.135 935.509,451.661Z" style="fill:rgb(229,172,0);fill-opacity:0.85;"/>
    </g>
    <g transform="matrix(-1.415956,0.984554,-0.984554,-1.415956,1907.552302,-110.798015)">
        <path d="M935.509,451.661C939.062,450.999 939.44,451.609 941.875,448.874C947.157,442.941 948.803,443.14 949.561,443.231C955.041,443.894 947.358,451.724 945.676,452.746C942.66,454.577 943.303,458.449 938.472,457.738C935.598,457.315 935.146,457.683 934.726,460.535C933.856,466.433 922.982,464.859 927.13,461.135C929.303,459.185 928.325,458.564 930.058,456.245C930.164,456.148 931.873,454.135 935.509,451.661Z" style="fill:rgb(229,172,0);fill-opacity:0.85;"/>
    </g>
    <g transform="matrix(-2.621645,0.043458,-0.043458,-2.621645,2645.544049,1076.53194)">
        <path d="M915.077,418.287C915.346,417.79 918.547,411.87 921.55,415.46C923.554,417.855 926.623,416.03 928.827,419.231C930.887,422.223 933.338,422.483 933.585,423.467C934.775,428.216 924.99,424.673 923.383,425.248C921.473,425.932 921.544,426.048 919.43,425.876C914.081,425.44 915.257,428.43 913.566,428.733C911.518,429.101 912.353,425.775 912.372,423.504C912.373,423.345 914.855,418.702 915.077,418.287Z" style="fill:rgb(229,172,0);fill-opacity:0.69;"/>
    </g>
    <g transform="matrix(-2.621645,0.043458,-0.043458,-2.621645,884.568742,502.720186)">
        <path d="M294.804,168.016C294.671,168.671 294.092,171.538 296.947,176.09C297.627,176.978 302.6,183.475 300.624,189.577C299.27,193.757 295.952,186.743 292.561,188.496C292.403,188.243 291.352,186.561 290.8,185.202C291.021,185.178 293.383,184.929 293.493,184.5C293.563,184.226 293.302,184.317 291.662,181.473C291.543,179.807 291.686,179.896 292.439,178.474C293.398,176.663 291.069,177.039 290.609,173.486C290.034,169.037 290.58,169.06 290.178,164.536C290.06,163.203 292.085,161.771 293.15,165.598C293.57,167.109 293.737,166.955 294.804,168.016Z" style="fill:rgb(229,172,0);fill-opacity:0.66;"/>
    </g>
    <g transform="matrix(-0.716743,1.935163,-1.935163,-0.716743,641.924423,-358.46751)">
        <path d="M294.804,168.016C294.671,168.671 294.092,171.538 296.947,176.09C297.627,176.978 302.6,183.475 300.624,189.577C299.27,193.757 295.952,186.743 292.561,188.496C292.403,188.243 291.352,186.561 290.8,185.202C291.021,185.178 293.383,184.929 293.493,184.5C293.563,184.226 293.302,184.317 291.662,181.473C291.543,179.807 291.686,179.896 292.439,178.474C293.398,176.663 291.069,177.039 290.609,173.486C290.034,169.037 290.58,169.06 290.178,164.536C290.06,163.203 292.085,161.771 293.15,165.598C293.57,167.109 293.737,166.955 294.804,168.016Z" style="fill:rgb(229,172,0);fill-opacity:0.8;"/>
    </g>
    <g transform="matrix(3.596629,1.424613,-1.201863,3.034265,-1855.08013,-1370.084649)">
        <path d="M624.426,163.086C626.071,164.224 625.967,164.181 627.588,165.53C626.794,167.143 627.16,171.319 624.681,169.198C623.759,168.41 623.735,168.584 622.54,168.173C622.377,168.124 620.505,167.562 620.505,167.562C619.318,167.018 619.45,167.634 618.488,168.495C618.435,168.509 616.193,167.571 610.493,172.625C609.814,172.772 609.961,173.146 608.803,172.991C607.341,172.796 607.841,173.597 606.791,174.701C605.69,175.648 605.723,175.583 604.867,176.81C604.39,177.839 604.474,177.767 603.715,178.706C601.283,174.045 600.563,181.236 600.529,181.577C596.139,180.577 594.895,179.21 597.868,175.831C600.036,173.368 603.647,174.305 603.346,170.508C603.137,167.862 607.443,166.722 608.302,167.917C610.107,170.429 610.056,167.466 613.046,165.1C614.001,165.382 613.478,166.057 614.435,166.34C614.593,166.386 615.284,166.59 616.48,166.114C617.24,165.811 617.74,165.022 618.5,164.719C623.095,163.434 623.105,164.571 623.48,164.433C623.994,164.243 623.912,163.276 624.426,163.086Z" style="fill:rgb(229,172,0);fill-opacity:0.68;"/>
    </g>
    <g transform="matrix(-2.621645,0.043458,-0.043458,-2.621645,938.689009,512.893483)">
        <path d="M324.029,178.282C327.424,180.548 327.356,180.628 327.655,180.818C326.585,182.264 326.393,182.267 326.504,182.374C326.504,182.374 328.337,182.493 328.497,182.504C330.535,183.477 330.52,183.471 330.536,183.475C332.513,186.306 332.577,186.158 332.74,186.402C335.741,190.91 329.757,191.28 323.483,192.266C322.855,191.952 322.227,191.638 321.6,191.324C320.622,186.71 318.758,188.428 314.658,186.212C310.957,184.211 315.695,182.994 318.699,184.289C318.55,185.507 318.416,186.03 319.538,185.736C321.83,185.456 321.716,185.972 323.802,187.046C325.2,187.766 325.46,188.763 326.319,187.399C327.819,185.015 320.743,184.083 324.029,178.282Z" style="fill:rgb(229,172,0);fill-opacity:0.57;"/>
    </g>
    <g transform="matrix(-2.621645,0.043458,-0.043458,-2.621645,938.689009,512.893483)">
        <path d="M306.158,190.657C304.543,187.805 303.637,187.795 304.517,186.512C306.238,184.002 307.693,185.868 307.859,186.08C309.662,188.392 310.507,187.282 312.428,189.571C314.272,191.767 314.77,190.596 319.481,190.161C319.891,193.409 319.644,193.395 319.709,193.669C319.423,195.021 319.406,194.979 319.669,196.352C316.488,196.151 316.437,195.41 313.5,196.587L312.083,195.6C311.545,196.036 311.007,196.472 310.47,196.909C307.378,196.571 307.255,197.104 304.644,195.295C304.461,195.167 301.485,193.105 304.502,192.504C305.891,192.228 305.646,191.952 306.158,190.657Z" style="fill:rgb(229,172,0);fill-opacity:0.56;"/>
    </g>
    <g transform="matrix(-1.43588,-0.955262,0.955262,-1.43588,1122.802194,1770.18718)">
        <path d="M951.725,393.026C960.251,395.156 947.924,400.664 947.86,400.755C946.977,402.029 943.28,409.382 938.492,407.515C936.803,406.856 937.002,404.243 938.387,403.407C938.665,403.239 938.988,403.044 939.498,399.5L940.08,398.476C941.997,397.784 941.989,397.992 943.658,396.976C946.839,395.042 947.539,397.021 950.518,394.856L951.725,393.026Z" style="fill:rgb(229,172,0);fill-opacity:0.73;"/>
    </g>
    <g transform="matrix(-2.621645,0.043458,-0.043458,-2.621645,1056.560743,606.817778)">
        <path d="M335.474,217.223C337.621,218.525 337.466,218.653 338.886,220.661L338.814,221.28C339.564,221.785 340.313,222.289 341.063,222.793C343.468,223.445 344.033,223.219 344.387,220.672C346.755,219.151 346.586,219.023 348.882,217.37C349.098,217.942 349.313,218.514 349.529,219.086C345.373,223.048 346.302,224.11 346.625,224.479C348.113,226.18 348.165,226.108 348.153,226.409C348.144,226.619 347.998,226.518 346.011,227.928C345.382,227.522 344.753,227.116 344.125,226.71C343.989,226.643 342.428,225.868 342.428,225.868C339.656,225.321 339.819,225.003 337.233,223.946C331.3,221.521 331.021,222.68 330.54,222.414C323.799,218.688 329.882,212.414 332.428,216.601C333.166,217.816 333.452,217.203 335.474,217.223Z" style="fill:rgb(229,172,0);fill-opacity:0.64;"/>
    </g>
    <g transform="matrix(-0.406681,2.590274,-2.590274,-0.406681,806.865042,-734.243366)">
        <path d="M335.474,217.223C337.621,218.525 337.466,218.653 338.886,220.661L338.814,221.28C339.564,221.785 340.313,222.289 341.063,222.793C343.468,223.445 344.033,223.219 344.387,220.672C346.755,219.151 346.586,219.023 348.882,217.37C349.098,217.942 349.313,218.514 349.529,219.086C345.373,223.048 346.302,224.11 346.625,224.479C348.113,226.18 348.165,226.108 348.153,226.409C348.144,226.619 347.998,226.518 346.011,227.928C345.382,227.522 344.753,227.116 344.125,226.71C343.989,226.643 342.428,225.868 342.428,225.868C339.656,225.321 339.819,225.003 337.233,223.946C331.3,221.521 331.021,222.68 330.54,222.414C323.799,218.688 329.882,212.414 332.428,216.601C333.166,217.816 333.452,217.203 335.474,217.223Z" style="fill:rgb(229,172,0);fill-opacity:0.64;"/>
    </g>
    <g transform="matrix(-2.53157,-0.682689,0.682689,-2.53157,2263.767096,1990.337978)">
        <path d="M970.216,518.498C970.555,516.168 969.912,515.642 971.421,515.26C976.298,514.023 976.036,513.328 976.468,513.287C986.687,512.321 990.655,510.154 991.815,511.1C995.266,513.915 983.76,515.742 982.61,516.667C979.902,518.847 978.972,516.609 976.591,518.615C974.862,520.071 971.685,527.381 970.216,518.498Z" style="fill:rgb(229,172,0);fill-opacity:0.7;"/>
    </g>
    <g transform="matrix(-1.724372,0.028584,-0.028584,-1.724372,1836.802571,814.559399)">
        <path d="M951.725,393.026L950.518,394.856C948.759,392.406 948.836,392.353 948.619,392.21C948.607,392.202 948.174,391.282 940.493,396.684C939.797,397.048 939.102,397.411 938.406,397.775C932.289,395.494 933.502,394.121 933.824,393.755C934.815,392.633 938.227,389.97 938.625,389.659C940.987,387.816 944.189,389.256 946.485,388.455C947.705,388.03 948.35,388.418 950.525,389.465C951.227,389.803 951.249,389.822 951.219,390.548C951.193,391.19 950.86,391.832 950.988,392.462C951.05,392.765 951.663,392.723 951.725,393.026Z" style="fill:rgb(229,172,0);fill-opacity:0.74;"/>
    </g>
    <g transform="matrix(-2.621645,0.043458,-0.043458,-2.621645,924.676679,551.329218)">
        <path d="M312.083,195.6L313.5,196.587C316.437,195.41 316.488,196.151 319.669,196.352C320.433,197.32 320.393,197.266 320.918,198.334C319.77,200.352 319.24,200.32 319.798,201.397C320.603,202.951 321.006,202.301 322.811,202.234C322.995,202.539 325.033,205.91 322.566,206.676C318.141,208.05 318.148,207.113 313.658,206.013C313.406,205.951 310.017,203.622 315.358,203.248C317.446,203.602 317.537,203.799 317.604,203.629C317.604,203.629 316.256,202.032 316.139,201.893C314.014,200.687 313.574,201.124 313.189,199.559C312.688,197.518 312.565,197.479 310.47,196.909C311.007,196.472 311.545,196.036 312.083,195.6Z" style="fill:rgb(229,172,0);fill-opacity:0.8;"/>
    </g>
    <g transform="matrix(-2.621645,0.043458,-0.043458,-2.621645,973.451735,793.200042)">
        <path d="M312.083,195.6L313.5,196.587C316.437,195.41 316.488,196.151 319.669,196.352C320.433,197.32 320.393,197.266 320.918,198.334C319.77,200.352 319.24,200.32 319.798,201.397C320.603,202.951 321.006,202.301 322.811,202.234C322.995,202.539 325.033,205.91 322.566,206.676C318.141,208.05 318.148,207.113 313.658,206.013C313.406,205.951 310.017,203.622 315.358,203.248C317.446,203.602 317.537,203.799 317.604,203.629C317.604,203.629 316.256,202.032 316.139,201.893C314.014,200.687 313.574,201.124 313.189,199.559C312.688,197.518 312.565,197.479 310.47,196.909C311.007,196.472 311.545,196.036 312.083,195.6Z" style="fill:rgb(229,172,0);fill-opacity:0.8;"/>
    </g>
    <g transform="matrix(-2.621645,0.043458,-0.043458,-2.621645,1759.870109,335.185638)">
        <path d="M631.169,113.412C631.809,111.899 631.771,111.95 632.251,110.381C633.514,106.252 643.232,109.966 639.927,112.818C638.366,114.165 639.145,118.353 634.535,118.828C630.231,119.271 630.319,117.581 631.169,113.412Z" style="fill:rgb(229,172,0);fill-opacity:0.66;"/>
    </g>
    <g transform="matrix(-2.621645,0.043458,-0.043458,-2.621645,1816.662982,532.290315)">
        <path d="M631.169,113.412C631.809,111.899 631.771,111.95 632.251,110.381C633.514,106.252 643.232,109.966 639.927,112.818C638.366,114.165 639.145,118.353 634.535,118.828C630.231,119.271 630.319,117.581 631.169,113.412Z" style="fill:rgb(229,172,0);fill-opacity:0.66;"/>
    </g>
    <g transform="matrix(-2.621645,0.043458,-0.043458,-2.621645,1822.008194,547.657798)">
        <path d="M631.169,113.412C631.809,111.899 631.771,111.95 632.251,110.381C633.514,106.252 643.232,109.966 639.927,112.818C638.366,114.165 639.145,118.353 634.535,118.828C630.231,119.271 630.319,117.581 631.169,113.412Z" style="fill:rgb(229,172,0);fill-opacity:0.66;"/>
    </g>
    <g transform="matrix(-2.621645,0.043458,-0.043458,-2.621645,927.178392,494.430256)">
        <path d="M315.776,168.013C315.502,170.381 315.424,170.414 316.848,172.406C316.982,173.029 317.116,173.653 317.249,174.277C313.928,178.02 313.059,176.417 310.712,174.238C306.978,170.768 311.206,169.998 311.739,168.63C312.671,166.234 313.413,166.954 315.776,168.013Z" style="fill:rgb(229,172,0);fill-opacity:0.79;"/>
    </g>
    <g transform="matrix(-1.724372,0.028584,-0.028584,-1.724372,1771.635912,856.225923)">
        <path d="M950.518,394.856C947.539,397.021 946.839,395.042 943.658,396.976C941.989,397.992 941.997,397.784 940.08,398.476C940.218,397.879 940.355,397.281 940.493,396.684C948.174,391.282 948.607,392.202 948.619,392.21C948.836,392.353 948.759,392.406 950.518,394.856Z" style="fill:rgb(229,172,0);fill-opacity:0.39;"/>
    </g>
    <g transform="matrix(-2.621645,0.043458,-0.043458,-2.621645,938.689009,512.893483)">
        <path d="M283.114,193.261C283.288,193.538 283.985,193.738 284.521,195.509C285.909,200.09 284.85,200.175 284.481,200.143C281.599,199.892 281.976,198.88 279.107,198.241C279.686,195.751 280.035,195.919 283.114,193.261Z" style="fill:rgb(229,172,0);fill-opacity:0.38;"/>
    </g>
    <g transform="matrix(-1.724372,0.028584,-0.028584,-1.724372,690.072461,392.191424)">
        <path d="M285.514,143.986C286.955,143.775 286.891,143.831 288.314,143.271C289.411,145.474 289.927,145.492 289.257,146.348C289.101,146.547 288.58,146.309 288.527,146.556C288.498,146.693 288.548,146.684 288.81,148.284C288.068,148.772 287.325,149.26 286.582,149.749L285.477,149.44C285.334,145.148 284.313,145.585 284.264,145.5L285.514,143.986Z" style="fill:rgb(229,172,0);fill-opacity:0.42;"/>
    </g>
    <g transform="matrix(-1.724372,0.028584,-0.028584,-1.724372,690.072461,392.191424)">
        <path d="M265.032,115.542C265.478,115.975 266.45,115.067 266.896,115.5C267.187,115.782 266.898,115.873 267.919,120.462C268.332,122.316 268.316,122.396 268.282,122.563C268.12,123.361 267.437,122.847 267.274,123.656C263.916,120.712 265.213,120.059 265.032,115.542Z" style="fill:rgb(229,172,0);fill-opacity:0.15;"/>
    </g>
    <g transform="matrix(-1.724372,0.028584,-0.028584,-1.724372,690.072461,392.191424)">
        <path d="M257.597,139.459C255.775,137.849 254.495,138.592 255.169,140.928C252.945,140.174 253.534,139.493 254.182,137.286C254.221,137.154 253.382,134.17 253.711,133.703C253.93,133.393 255.364,132.128 256.883,137.237C256.883,137.237 257.539,139.281 257.597,139.459Z" style="fill:rgb(229,172,0);fill-opacity:0.13;"/>
    </g>
    <g transform="matrix(-1.724372,0.028584,-0.028584,-1.724372,690.072461,392.191424)">
        <path d="M301.862,117.46C301.897,117.931 302.086,120.471 301.67,123.359C296.654,123.076 296.5,119.011 301.862,117.46Z" style="fill:rgb(229,172,0);fill-opacity:0.19;"/>
    </g>
    <g transform="matrix(-2.621645,0.043458,-0.043458,-2.621645,938.689009,512.893483)">
        <path d="M273.387,161.666C274.382,163.375 274.422,163.345 274.462,163.512C275.007,165.791 274.039,165.631 274.093,165.809C274.237,166.282 274.98,166.307 275.279,166.701C275.279,166.701 275.181,168.593 275.172,168.757C273.285,167.078 273.274,166.905 270.706,166.977C271.005,166.425 270.201,165.657 270.5,165.104C271.01,164.164 271.952,165.256 272.17,164.185C272.475,162.681 271.988,162.399 273.387,161.666Z" style="fill:rgb(229,172,0);fill-opacity:0.15;"/>
    </g>
    <g transform="matrix(-2.621645,0.043458,-0.043458,-2.621645,789.691236,476.813305)">
        <path d="M273.387,161.666C274.382,163.375 274.422,163.345 274.462,163.512C275.007,165.791 274.039,165.631 274.093,165.809C274.237,166.282 274.98,166.307 275.279,166.701C275.279,166.701 275.181,168.593 275.172,168.757C273.285,167.078 273.274,166.905 270.706,166.977C271.005,166.425 270.201,165.657 270.5,165.104C271.01,164.164 271.952,165.256 272.17,164.185C272.475,162.681 271.988,162.399 273.387,161.666Z" style="fill:rgb(229,172,0);fill-opacity:0.65;"/>
    </g>
    <g transform="matrix(-2.621645,0.043458,-0.043458,-2.621645,851.161169,508.786416)">
        <path d="M294.804,168.016C298.124,168.966 296.879,170.119 297.784,173.457C297.842,173.67 297.723,173.649 296.947,176.09C294.092,171.538 294.671,168.671 294.804,168.016Z" style="fill:rgb(229,172,0);fill-opacity:0.69;"/>
    </g>
    <g transform="matrix(-2.621645,0.043458,-0.043458,-2.621645,938.689009,512.893483)">
        <path d="M324.029,178.282C326.295,176.233 326.724,175.982 329.18,177.814C332.177,180.049 327.921,180.772 327.655,180.818C327.356,180.628 327.424,180.548 324.029,178.282Z" style="fill:rgb(229,172,0);fill-opacity:0.51;"/>
    </g>
    <g transform="matrix(-6.074063,0.100687,-0.101084,-6.098006,1245.055557,1267.103244)">
        <path d="M169.496,210.48C169.691,210.305 170.749,208.016 173.502,208.49C174.135,208.599 174.753,208.918 175.393,208.862C175.817,208.825 176.098,208.086 176.5,208.226C176.963,208.386 176.768,209.339 177.231,209.5L177.492,210.855C170.055,210.357 170.133,210.544 169.496,210.48Z" style="fill:rgb(229,172,0);fill-opacity:0.12;"/>
    </g>
    <g transform="matrix(-5.999904,0.099458,-0.099458,-5.999904,6111.183797,2911.058714)">
        <path d="M979.665,473.587L980.629,475.253C977.634,477.082 977.59,477.83 974.211,476.615C973.702,476.391 973.193,476.166 972.685,475.942C973.031,474.56 971.851,473.275 973.205,473.867C973.595,474.037 973.932,474.364 974.143,474.733C975.11,476.422 975.491,476.139 977.21,475.38C977.432,475.282 977.199,475.061 979.665,473.587Z" style="fill:rgb(229,172,0);fill-opacity:0.59;"/>
    </g>
    <g transform="matrix(-1.724372,0.028584,-0.028584,-1.724372,690.072461,392.191424)">
        <path d="M262.081,144.949C262.938,147.249 263.118,147.115 263.497,149.5C262.821,150.473 262.985,150.591 261.833,151.035C260.075,148.729 260.391,148.549 260.924,145.743C261.31,145.479 261.695,145.214 262.081,144.949Z" style="fill:rgb(229,172,0);fill-opacity:0.26;"/>
    </g>
</svg>
